<svg version="1.1" viewBox="0 0 128 128" xmlns="http://www.w3.org/2000/svg">
<g stroke="#000" stroke-linecap="round" stroke-linejoin="round" stroke-width="2.7">
<path transform="matrix(.48 0 0 .48 6.6 48)" d="m76 56-40 23-40-23-0.099-46 40-23 40 23z" fill="#999" opacity=".7"/>
<path transform="matrix(.48 0 0 .48 27 13)" d="m76 56-40 23-40-23-0.099-46 40-23 40 23z" fill="#666" opacity=".7"/>
<path transform="matrix(.48 0 0 .48 67 83)" d="m76 56-40 23-40-23-0.099-46 40-23 40 23z" fill="#ececec" opacity=".7"/>
<path transform="matrix(.48 0 0 .48 47 48)" d="m76 56-40 23-40-23-0.099-46 40-23 40 23z" fill="#b3b3b3" opacity=".7"/>
<path transform="matrix(.48 0 0 .48 87 48)" d="m76 56-40 23-40-23-0.099-46 40-23 40 23z" fill="#ccc" opacity=".7"/>
<path transform="matrix(.48 0 0 .48 67 13)" d="m76 56-40 23-40-23-0.099-46 40-23 40 23z" fill="#999" opacity=".7"/>
<path transform="matrix(.48 0 0 .48 27 83)" d="m76 56-40 23-40-23-0.099-46 40-23 40 23z" fill="#ccc" opacity=".7"/>
</g>
</svg>
