<svg xmlns="http://www.w3.org/2000/svg" viewBox="0 0 143.6 117.2">
    <g fill="#fff" stroke="#000" stroke-linecap="round" stroke-linejoin="round" stroke-width=".265">
        <path d="m34.13 73.89 12.6 11.3-8.038-1.504z" />
        <path d="m54.42 69.01-20.3 4.889 12.6 11.3z" />
        <path
            d="m46.73 85.2 5.725 1.156 9.657-11.28-7.691-6.074zM43.94 60.86l10.48 8.142-20.3 4.889zM62.11 75.08 85.93 59.8l-15.98.212zM54.29 28.54l7.65-.364-5.476 17.68-12.53 15zM72.59 41.07l-16.12 4.79 13.49 14.15z" />
        <path
            d="m69.95 60.01 15.98-.212-2.234-19.29-11.11.559zM61.94 28.18l4.659-2.929 4.66-2.906-20.27-8.718 10.95 14.55M85.93 59.8l4.334 8.485 24.2-14.66zM71.26 22.34l24.8.765 5.282 17.53zM114.5 53.62l4.21-16.03-22.62-14.48 5.282 17.53zM50.99 13.63l3.301 14.92 7.65-.364z" />
        <path d="M101.3 40.64 85.89 59.79l28.53-6.174-13.12-12.98" />
        <path
            d="M101.3 40.64 85.89 59.79 83.656 40.5zM56.46 45.86 54.418 69l-10.48-8.142zM90.26 68.28l.046 11.52 10.45 3.765 13.7-29.94zM100.8 83.57l20.1 33.38-6.398-63.32z" />
        <path
            d="m120.9 116.9-27.2.132 7.096-33.51zM93.66 117.1l-16.56-9.427 13.21-27.85 10.45 3.765zM133.1 58.21l-15.41 27.08-3.199-31.66 4.21-16.03zM120.9 116.9l20.5-10.74 2.157-12.34-22.65 23.07M61.94 28.18l10.65 12.89-16.12 4.79zM54.42 69.01l2.042-23.14 13.49 14.15zM71.26 22.34l-9.319 5.835 10.65 12.89 28.75-.427z" />
        <path
            d="m69.95 60.01-15.53 8.993 7.691 6.074zM133.1 58.21l10.44 35.67-22.65 23.07-3.199-31.66zM51.03 38.71.13.13l54.16 28.41z" />
    </g>
</svg>